<svg width="38" height="38" viewBox="0 0 38 38" fill="none" xmlns="http://www.w3.org/2000/svg">
<g filter="url(#filter0_d_1004_779)">
<rect x="3" y="3" width="32" height="32" rx="16" fill="#00C171"/>
</g>
<g filter="url(#filter1_d_1004_779)">
<path fill-rule="evenodd" clip-rule="evenodd" d="M20 12C20 11.4477 19.5523 11 19 11C18.4477 11 18 11.4477 18 12V18H12C11.4477 18 11 18.4477 11 19C11 19.5523 11.4477 20 12 20H18V26C18 26.5523 18.4477 27 19 27C19.5523 27 20 26.5523 20 26V20H26C26.5523 20 27 19.5523 27 19C27 18.4477 26.5523 18 26 18H20V12Z" fill="white"/>
</g>
<defs>
<filter id="filter0_d_1004_779" x="1" y="3" width="36" height="36" filterUnits="userSpaceOnUse" color-interpolation-filters="sRGB">
<feFlood flood-opacity="0" result="BackgroundImageFix"/>
<feColorMatrix in="SourceAlpha" type="matrix" values="0 0 0 0 0 0 0 0 0 0 0 0 0 0 0 0 0 0 127 0" result="hardAlpha"/>
<feOffset dy="2"/>
<feGaussianBlur stdDeviation="1"/>
<feComposite in2="hardAlpha" operator="out"/>
<feColorMatrix type="matrix" values="0 0 0 0 0 0 0 0 0 0 0 0 0 0 0 0 0 0 0.25 0"/>
<feBlend mode="normal" in2="BackgroundImageFix" result="effect1_dropShadow_1004_779"/>
<feBlend mode="normal" in="SourceGraphic" in2="effect1_dropShadow_1004_779" result="shape"/>
</filter>
<filter id="filter1_d_1004_779" x="10" y="11" width="18" height="18" filterUnits="userSpaceOnUse" color-interpolation-filters="sRGB">
<feFlood flood-opacity="0" result="BackgroundImageFix"/>
<feColorMatrix in="SourceAlpha" type="matrix" values="0 0 0 0 0 0 0 0 0 0 0 0 0 0 0 0 0 0 127 0" result="hardAlpha"/>
<feOffset dy="1"/>
<feGaussianBlur stdDeviation="0.5"/>
<feComposite in2="hardAlpha" operator="out"/>
<feColorMatrix type="matrix" values="0 0 0 0 0 0 0 0 0 0 0 0 0 0 0 0 0 0 0.25 0"/>
<feBlend mode="normal" in2="BackgroundImageFix" result="effect1_dropShadow_1004_779"/>
<feBlend mode="normal" in="SourceGraphic" in2="effect1_dropShadow_1004_779" result="shape"/>
</filter>
</defs>
</svg>
