<svg width="28" height="28" viewBox="0 0 28 28" fill="none" xmlns="http://www.w3.org/2000/svg">
<g filter="url(#filter0_d_1004_120)">
<circle cx="14" cy="13" r="12" transform="rotate(-180 14 13)" fill="url(#paint0_linear_1004_120)"/>
<circle cx="14" cy="13" r="12" transform="rotate(-180 14 13)" fill="white"/>
</g>
<g filter="url(#filter1_d_1004_120)">
<path fill-rule="evenodd" clip-rule="evenodd" d="M13 20C13 20.5523 13.4477 21 14 21C14.5523 21 15 20.5523 15 20L15 8.41421L19.2929 12.7071C19.6834 13.0976 20.3166 13.0976 20.7071 12.7071C21.0976 12.3166 21.0976 11.6834 20.7071 11.2929L14.7071 5.29289C14.3166 4.90237 13.6834 4.90237 13.2929 5.29289L7.29289 11.2929C6.90237 11.6834 6.90237 12.3166 7.29289 12.7071C7.68342 13.0976 8.31658 13.0976 8.70711 12.7071L13 8.41421L13 20Z" fill="url(#paint1_linear_1004_120)"/>
</g>
<defs>
<filter id="filter0_d_1004_120" x="0" y="0" width="28" height="28" filterUnits="userSpaceOnUse" color-interpolation-filters="sRGB">
<feFlood flood-opacity="0" result="BackgroundImageFix"/>
<feColorMatrix in="SourceAlpha" type="matrix" values="0 0 0 0 0 0 0 0 0 0 0 0 0 0 0 0 0 0 127 0" result="hardAlpha"/>
<feOffset dy="1"/>
<feGaussianBlur stdDeviation="1"/>
<feComposite in2="hardAlpha" operator="out"/>
<feColorMatrix type="matrix" values="0 0 0 0 0 0 0 0 0 0 0 0 0 0 0 0 0 0 0.25 0"/>
<feBlend mode="normal" in2="BackgroundImageFix" result="effect1_dropShadow_1004_120"/>
<feBlend mode="normal" in="SourceGraphic" in2="effect1_dropShadow_1004_120" result="shape"/>
</filter>
<filter id="filter1_d_1004_120" x="5" y="4" width="18" height="20" filterUnits="userSpaceOnUse" color-interpolation-filters="sRGB">
<feFlood flood-opacity="0" result="BackgroundImageFix"/>
<feColorMatrix in="SourceAlpha" type="matrix" values="0 0 0 0 0 0 0 0 0 0 0 0 0 0 0 0 0 0 127 0" result="hardAlpha"/>
<feOffset dy="1"/>
<feGaussianBlur stdDeviation="1"/>
<feComposite in2="hardAlpha" operator="out"/>
<feColorMatrix type="matrix" values="0 0 0 0 0 0 0 0 0 0 0 0 0 0 0 0 0 0 0.25 0"/>
<feBlend mode="normal" in2="BackgroundImageFix" result="effect1_dropShadow_1004_120"/>
<feBlend mode="normal" in="SourceGraphic" in2="effect1_dropShadow_1004_120" result="shape"/>
</filter>
<linearGradient id="paint0_linear_1004_120" x1="53" y1="56" x2="11.5" y2="8" gradientUnits="userSpaceOnUse">
<stop stop-color="#332F64"/>
<stop offset="1" stop-color="#6200E8"/>
</linearGradient>
<linearGradient id="paint1_linear_1004_120" x1="-8.75" y1="-15.6667" x2="19.2081" y2="12.6282" gradientUnits="userSpaceOnUse">
<stop stop-color="#332F64"/>
<stop offset="1" stop-color="#6200E8"/>
</linearGradient>
</defs>
</svg>
